<mxfile modified="2021-04-24T10:07:20.855Z" host="app.diagrams.net" agent="5.0 (Macintosh; Intel Mac OS X 10_15_6) AppleWebKit/605.1.15 (KHTML, like Gecko) Version/14.0.3 Safari/605.1.15" etag="ps7fOXdGUaeWikbp_Yxi" version="14.6.6" type="github">
  <diagram id="C2fSY1v2SiZeoUbDoYyL" name="Page-1">
    <mxGraphModel dx="1080" dy="735" grid="1" gridSize="10" guides="1" tooltips="1" connect="1" arrows="1" fold="1" page="1" pageScale="1" pageWidth="1169" pageHeight="827" math="0" shadow="0">
      <root>
        <mxCell id="0" />
        <mxCell id="1" parent="0" />
        <mxCell id="3ne1QswCM8ZiEu4GHsYG-31" value="Antarctic Base ANA Graph" style="text;html=1;strokeColor=none;fillColor=none;align=center;verticalAlign=middle;whiteSpace=wrap;rounded=0;fontStyle=1;fontSize=20;fontColor=#4D4D4D;" parent="1" vertex="1">
          <mxGeometry x="189.5" y="50" width="790" height="30" as="geometry" />
        </mxCell>
        <mxCell id="3ne1QswCM8ZiEu4GHsYG-32" value="" style="line;strokeWidth=2;html=1;fontSize=20;fontColor=#4D4D4D;" parent="1" vertex="1">
          <mxGeometry x="103.5" y="80" width="960" height="10" as="geometry" />
        </mxCell>
        <mxCell id="qaPBjsPgy6HT6tylqLjV-7" value="5.3" style="ellipse;whiteSpace=wrap;html=1;aspect=fixed;" vertex="1" parent="1">
          <mxGeometry x="600" y="590" width="50" height="50" as="geometry" />
        </mxCell>
        <mxCell id="qaPBjsPgy6HT6tylqLjV-8" value="5.2" style="ellipse;whiteSpace=wrap;html=1;aspect=fixed;" vertex="1" parent="1">
          <mxGeometry x="480" y="590" width="50" height="50" as="geometry" />
        </mxCell>
        <mxCell id="qaPBjsPgy6HT6tylqLjV-9" value="5.1" style="ellipse;whiteSpace=wrap;html=1;aspect=fixed;" vertex="1" parent="1">
          <mxGeometry x="360" y="590" width="50" height="50" as="geometry" />
        </mxCell>
        <mxCell id="qaPBjsPgy6HT6tylqLjV-11" value="4" style="ellipse;whiteSpace=wrap;html=1;aspect=fixed;" vertex="1" parent="1">
          <mxGeometry x="440" y="510" width="50" height="50" as="geometry" />
        </mxCell>
        <mxCell id="qaPBjsPgy6HT6tylqLjV-12" value="3" style="ellipse;whiteSpace=wrap;html=1;aspect=fixed;" vertex="1" parent="1">
          <mxGeometry x="310" y="510" width="50" height="50" as="geometry" />
        </mxCell>
        <mxCell id="qaPBjsPgy6HT6tylqLjV-13" value="2" style="ellipse;whiteSpace=wrap;html=1;aspect=fixed;" vertex="1" parent="1">
          <mxGeometry x="310" y="330" width="50" height="50" as="geometry" />
        </mxCell>
        <mxCell id="qaPBjsPgy6HT6tylqLjV-14" value="1.3" style="ellipse;whiteSpace=wrap;html=1;aspect=fixed;" vertex="1" parent="1">
          <mxGeometry x="460" y="414" width="50" height="50" as="geometry" />
        </mxCell>
        <mxCell id="qaPBjsPgy6HT6tylqLjV-31" style="edgeStyle=orthogonalEdgeStyle;rounded=0;orthogonalLoop=1;jettySize=auto;html=1;exitX=1;exitY=0.5;exitDx=0;exitDy=0;" edge="1" parent="1" source="qaPBjsPgy6HT6tylqLjV-15" target="qaPBjsPgy6HT6tylqLjV-14">
          <mxGeometry relative="1" as="geometry" />
        </mxCell>
        <mxCell id="qaPBjsPgy6HT6tylqLjV-15" value="1.2" style="ellipse;whiteSpace=wrap;html=1;aspect=fixed;" vertex="1" parent="1">
          <mxGeometry x="340" y="414" width="50" height="50" as="geometry" />
        </mxCell>
        <mxCell id="qaPBjsPgy6HT6tylqLjV-30" style="edgeStyle=orthogonalEdgeStyle;rounded=0;orthogonalLoop=1;jettySize=auto;html=1;exitX=1;exitY=0.5;exitDx=0;exitDy=0;" edge="1" parent="1" source="qaPBjsPgy6HT6tylqLjV-16" target="qaPBjsPgy6HT6tylqLjV-15">
          <mxGeometry relative="1" as="geometry" />
        </mxCell>
        <mxCell id="qaPBjsPgy6HT6tylqLjV-16" value="1.1" style="ellipse;whiteSpace=wrap;html=1;aspect=fixed;" vertex="1" parent="1">
          <mxGeometry x="220" y="414" width="50" height="50" as="geometry" />
        </mxCell>
        <mxCell id="qaPBjsPgy6HT6tylqLjV-29" style="edgeStyle=orthogonalEdgeStyle;rounded=0;orthogonalLoop=1;jettySize=auto;html=1;" edge="1" parent="1" source="qaPBjsPgy6HT6tylqLjV-17" target="qaPBjsPgy6HT6tylqLjV-16">
          <mxGeometry relative="1" as="geometry" />
        </mxCell>
        <mxCell id="qaPBjsPgy6HT6tylqLjV-17" value="Start Project" style="ellipse;whiteSpace=wrap;html=1;aspect=fixed;" vertex="1" parent="1">
          <mxGeometry x="90" y="414" width="50" height="50" as="geometry" />
        </mxCell>
        <mxCell id="qaPBjsPgy6HT6tylqLjV-22" value="5.3" style="ellipse;whiteSpace=wrap;html=1;aspect=fixed;" vertex="1" parent="1">
          <mxGeometry x="830" y="100" width="50" height="50" as="geometry" />
        </mxCell>
        <mxCell id="qaPBjsPgy6HT6tylqLjV-23" value="5.3" style="ellipse;whiteSpace=wrap;html=1;aspect=fixed;" vertex="1" parent="1">
          <mxGeometry x="830" y="270" width="50" height="50" as="geometry" />
        </mxCell>
        <mxCell id="qaPBjsPgy6HT6tylqLjV-24" value="5.3" style="ellipse;whiteSpace=wrap;html=1;aspect=fixed;" vertex="1" parent="1">
          <mxGeometry x="790" y="200" width="50" height="50" as="geometry" />
        </mxCell>
        <mxCell id="qaPBjsPgy6HT6tylqLjV-25" value="5.3" style="ellipse;whiteSpace=wrap;html=1;aspect=fixed;" vertex="1" parent="1">
          <mxGeometry x="870" y="110" width="50" height="50" as="geometry" />
        </mxCell>
        <mxCell id="qaPBjsPgy6HT6tylqLjV-26" value="5.3" style="ellipse;whiteSpace=wrap;html=1;aspect=fixed;" vertex="1" parent="1">
          <mxGeometry x="720" y="190" width="50" height="50" as="geometry" />
        </mxCell>
      </root>
    </mxGraphModel>
  </diagram>
</mxfile>
